<?xml version="1.0" encoding="UTF-8" standalone="no"?>
<!-- Created with Inkscape (http://www.inkscape.org/) -->
<svg
   xmlns:dc="http://purl.org/dc/elements/1.1/"
   xmlns:cc="http://web.resource.org/cc/"
   xmlns:rdf="http://www.w3.org/1999/02/22-rdf-syntax-ns#"
   xmlns:svg="http://www.w3.org/2000/svg"
   xmlns="http://www.w3.org/2000/svg"
   xmlns:xlink="http://www.w3.org/1999/xlink"
   xmlns:sodipodi="http://inkscape.sourceforge.net/DTD/sodipodi-0.dtd"
   xmlns:inkscape="http://www.inkscape.org/namespaces/inkscape"
   width="744.09448819"
   height="1052.3622047"
   id="svg2"
   sodipodi:version="0.32"
   inkscape:version="0.42"
   sodipodi:docbase="/home/daniel/giraffe/install"
   sodipodi:docname="grafit.svg"
   inkscape:export-filename="/home/daniel/giraffe/install/grafit.png"
   inkscape:export-xdpi="90.000000"
   inkscape:export-ydpi="90.000000">
  <defs
     id="defs4">
    <linearGradient
       id="linearGradient2035">
      <stop
         style="stop-color:#2a4ab3;stop-opacity:1.0000000;"
         offset="0.0000000"
         id="stop2037" />
      <stop
         id="stop2783"
         offset="0.50000000"
         style="stop-color:#2a4ab3;stop-opacity:0.65098041;" />
      <stop
         style="stop-color:#4a63b3;stop-opacity:0.44313726;"
         offset="0.75000000"
         id="stop2785" />
      <stop
         style="stop-color:#4a2ab3;stop-opacity:0;"
         offset="1"
         id="stop2039" />
    </linearGradient>
    <radialGradient
       inkscape:collect="always"
       xlink:href="#linearGradient2035"
       id="radialGradient2781"
       cx="385.71429"
       cy="289.50504"
       fx="385.71429"
       fy="289.50504"
       r="32.337185"
       gradientUnits="userSpaceOnUse" />
  </defs>
  <sodipodi:namedview
     id="base"
     pagecolor="#ffffff"
     bordercolor="#666666"
     borderopacity="1.0"
     inkscape:pageopacity="0.0"
     inkscape:pageshadow="2"
     inkscape:zoom="0.35948457"
     inkscape:cx="354.91634"
     inkscape:cy="421.81467"
     inkscape:document-units="px"
     inkscape:current-layer="layer1"
     inkscape:window-width="1080"
     inkscape:window-height="727"
     inkscape:window-x="0"
     inkscape:window-y="0" />
  <metadata
     id="metadata7">
    <rdf:RDF>
      <cc:Work
         rdf:about="">
        <dc:format>image/svg+xml</dc:format>
        <dc:type
           rdf:resource="http://purl.org/dc/dcmitype/StillImage" />
      </cc:Work>
    </rdf:RDF>
  </metadata>
  <g
     inkscape:label="Layer 1"
     inkscape:groupmode="layer"
     id="layer1">
    <path
       sodipodi:type="arc"
       style="fill:url(#radialGradient2781);fill-opacity:1.0000000;fill-rule:evenodd;stroke:#192f9c;stroke-width:1.8172241;stroke-linecap:butt;stroke-linejoin:miter;stroke-miterlimit:4.0000000;stroke-dasharray:none;stroke-opacity:0.99456519"
       id="path1311"
       sodipodi:cx="385.71429"
       sodipodi:cy="289.50504"
       sodipodi:rx="31.428572"
       sodipodi:ry="31.428572"
       d="M 417.14287 289.50504 A 31.428572 31.428572 0 1 1  354.28572,289.50504 A 31.428572 31.428572 0 1 1  417.14287 289.50504 z"
       transform="matrix(-2.257702,-2.090655,2.921601,-3.155044,314.7262,2354.564)" />
    <path
       style="fill:#535353;fill-opacity:0.54644811;fill-rule:nonzero;stroke:#085c00;stroke-width:0.0000000;stroke-linecap:butt;stroke-linejoin:miter;stroke-miterlimit:4.0000000;stroke-dasharray:none;stroke-opacity:0.36065570"
       id="path2074"
       d="M 310.31960,481.38054 C 307.92592,505.56938 302.22904,529.23761 299.06715,553.40137 C 294.37796,584.82783 285.15496,616.34482 270.23501,642.76843 C 251.93247,673.48794 223.03327,700.11480 192.50138,704.66153 C 173.28643,671.64200 218.38859,650.42942 244.22668,647.07952 C 262.27775,644.34065 277.98322,650.87923 294.76073,657.98380 C 311.14984,666.40306 327.76712,674.07514 344.65721,680.84111 C 363.36021,688.68733 382.80144,689.57181 402.35966,689.61883 L 452.69972,671.91966 C 437.00375,692.82944 441.31284,694.64761 402.65384,712.05475 C 494.07640,647.59392 397.37311,729.41231 364.52088,723.12448 C 344.65594,722.69960 324.96844,720.70000 306.03094,712.71838 C 289.21208,705.84019 272.65047,698.23158 256.32869,689.75265 C 239.80479,682.93734 224.15651,678.03588 206.55104,681.03635 C 173.69612,692.38387 241.94968,634.52125 230.95159,671.59440 C 242.77201,665.83003 182.95237,717.45630 227.62202,665.05859 C 243.47926,640.09729 252.29847,608.72130 257.84481,578.16304 C 260.61643,554.54693 265.76651,531.14662 268.02353,507.66295 L 310.31960,481.38054 z "
       sodipodi:nodetypes="ccccccccccccccccccc" />
    <path
       style="fill:#000000;fill-opacity:1.0000000;fill-rule:nonzero;stroke:#085c00;stroke-width:0.0000000;stroke-linecap:butt;stroke-linejoin:miter;stroke-miterlimit:4.0000000;stroke-dasharray:none;stroke-opacity:0.36065570"
       id="path2783"
       d="M 316.98436,474.77139 C 314.59068,498.96023 308.89380,522.62846 305.73191,546.79222 C 301.04272,578.21868 291.81972,609.73567 276.89977,636.15928 C 258.59723,666.87879 229.69803,693.50565 199.16614,698.05238 C 179.95119,665.03285 225.05335,643.82027 250.89144,640.47037 C 268.94251,637.73150 284.64798,644.27008 301.42549,651.37465 C 317.81460,659.79391 334.43188,667.46599 351.32197,674.23196 C 370.02497,682.07818 389.46620,682.96266 409.02442,683.00968 L 459.36448,665.31051 C 443.66851,686.22029 447.97760,688.03846 409.31860,705.44560 C 500.74116,640.98477 404.03787,722.80316 371.18564,716.51533 C 351.32070,716.09045 331.63320,714.09085 312.69570,706.10923 C 295.87684,699.23104 279.31523,691.62243 262.99345,683.14350 C 246.46955,676.32819 230.82127,671.42673 213.21580,674.42720 C 180.36088,685.77472 248.61444,627.91210 237.61635,664.98525 C 249.43677,659.22088 189.61713,710.84715 234.28678,658.44944 C 250.14402,633.48814 258.96323,602.11215 264.50957,571.55389 C 267.28119,547.93778 272.43127,524.53747 274.68829,501.05380 L 316.98436,474.77139 z "
       sodipodi:nodetypes="ccccccccccccccccccc" />
  </g>
</svg>
