<?xml version="1.0" encoding="UTF-8" standalone="no"?>
<!-- Created with Inkscape (http://www.inkscape.org/) -->
<svg
   xmlns:dc="http://purl.org/dc/elements/1.1/"
   xmlns:cc="http://web.resource.org/cc/"
   xmlns:rdf="http://www.w3.org/1999/02/22-rdf-syntax-ns#"
   xmlns:svg="http://www.w3.org/2000/svg"
   xmlns="http://www.w3.org/2000/svg"
   xmlns:xlink="http://www.w3.org/1999/xlink"
   xmlns:sodipodi="http://inkscape.sourceforge.net/DTD/sodipodi-0.dtd"
   xmlns:inkscape="http://www.inkscape.org/namespaces/inkscape"
   width="744.09448819"
   height="1052.3622047"
   id="svg2"
   sodipodi:version="0.32"
   inkscape:version="0.42"
   sodipodi:docbase="/home/daniel/giraffe/install"
   sodipodi:docname="grafit.svg"
   inkscape:export-filename="/home/daniel/giraffe/install/grafit.png"
   inkscape:export-xdpi="90.000000"
   inkscape:export-ydpi="90.000000">
  <defs
     id="defs4">
    <linearGradient
       id="linearGradient2035">
      <stop
         style="stop-color:#4a2ab3;stop-opacity:1;"
         offset="0"
         id="stop2037" />
      <stop
         id="stop2783"
         offset="0.50000000"
         style="stop-color:#4a2ab3;stop-opacity:1.0000000;" />
      <stop
         style="stop-color:#4a2ab3;stop-opacity:0.87755102;"
         offset="0.75000000"
         id="stop2785" />
      <stop
         style="stop-color:#4a2ab3;stop-opacity:0;"
         offset="1"
         id="stop2039" />
    </linearGradient>
    <radialGradient
       inkscape:collect="always"
       xlink:href="#linearGradient2035"
       id="radialGradient2781"
       cx="385.71429"
       cy="289.50504"
       fx="385.71429"
       fy="289.50504"
       r="32.337185"
       gradientUnits="userSpaceOnUse" />
  </defs>
  <sodipodi:namedview
     id="base"
     pagecolor="#ffffff"
     bordercolor="#666666"
     borderopacity="1.0"
     inkscape:pageopacity="0.0"
     inkscape:pageshadow="2"
     inkscape:zoom="0.35000000"
     inkscape:cx="375.00000"
     inkscape:cy="634.28571"
     inkscape:document-units="px"
     inkscape:current-layer="layer1"
     inkscape:window-width="1080"
     inkscape:window-height="727"
     inkscape:window-x="0"
     inkscape:window-y="0" />
  <metadata
     id="metadata7">
    <rdf:RDF>
      <cc:Work
         rdf:about="">
        <dc:format>image/svg+xml</dc:format>
        <dc:type
           rdf:resource="http://purl.org/dc/dcmitype/StillImage" />
      </cc:Work>
    </rdf:RDF>
  </metadata>
  <g
     inkscape:label="Layer 1"
     inkscape:groupmode="layer"
     id="layer1">
    <path
       style="fill:#000000;fill-opacity:1.0000000;fill-rule:nonzero;stroke:none;stroke-width:1.0000000px;stroke-linecap:butt;stroke-linejoin:miter;stroke-opacity:1.0000000"
       id="path2783"
       d="M 239.38036,186.68903 C 237.21910,207.73766 232.07536,228.33326 229.22048,249.36006 C 224.98659,276.70671 216.65911,304.13214 203.18783,327.12542 C 186.66240,353.85690 160.56920,377.02704 133.00184,380.98351 C 115.65259,352.25060 156.37550,333.79185 179.70481,330.87684 C 196.00319,328.49353 210.18372,334.18327 225.33220,340.36552 C 240.12999,347.69178 255.13379,354.36787 270.38392,360.25547 C 287.27093,367.08309 304.82449,367.85275 322.48368,367.89366 C 394.09734,344.19349 251.71909,425.96444 355.90410,356.31549 C 298.19985,405.40276 316.71211,384.00135 328.95461,372.25567 L 367.93591,352.49221 C 353.76396,370.68747 357.65466,372.26960 322.74930,387.41693 C 405.29508,331.32446 317.98131,402.52112 288.31890,397.04958 C 270.38277,396.67986 252.60685,394.93985 235.50811,387.99441 C 220.32230,382.00915 205.36876,375.38830 190.63176,368.01011 C 175.71227,362.07957 161.58338,357.81442 145.68733,360.42537 C 116.02250,370.29974 177.64890,319.94889 167.71868,352.20918 C 178.39138,347.19314 124.38000,392.11725 164.71240,346.52185 C 179.02996,324.80105 186.99286,297.49831 192.00067,270.90715 C 194.50318,250.35690 199.15320,229.99444 201.19108,209.55944 L 239.38036,186.68903 z " />
    <path
       sodipodi:type="arc"
       style="fill:#113b0f;fill-opacity:1.0000000;fill-rule:evenodd;stroke:#000000;stroke-width:1.0000000px;stroke-linecap:butt;stroke-linejoin:miter;stroke-opacity:1.0000000"
       id="path1307"
       sodipodi:cx="300.00000"
       sodipodi:cy="309.50504"
       sodipodi:rx="31.428572"
       sodipodi:ry="31.428572"
       d="M 331.42857 309.50504 A 31.428572 31.428572 0 1 1  268.57143,309.50504 A 31.428572 31.428572 0 1 1  331.42857 309.50504 z"
       transform="matrix(0.867696,0.000000,0.000000,0.854897,55.62988,53.22928)" />
    <path
       sodipodi:type="arc"
       style="fill:#ff0000;fill-opacity:1.0000000;fill-rule:evenodd;stroke:#000000;stroke-width:1.0000000px;stroke-linecap:butt;stroke-linejoin:miter;stroke-opacity:1.0000000"
       id="path1309"
       sodipodi:cx="304.28571"
       sodipodi:cy="236.64790"
       sodipodi:rx="24.285715"
       sodipodi:ry="24.285715"
       d="M 328.57142 236.64790 A 24.285715 24.285715 0 1 1  279.99999,236.64790 A 24.285715 24.285715 0 1 1  328.57142 236.64790 z"
       transform="matrix(0.867696,0.000000,0.000000,0.854897,13.19894,57.02751)" />
    <path
       sodipodi:type="arc"
       style="fill:url(#radialGradient2781);fill-opacity:1.0;fill-rule:evenodd;stroke:#192f9c;stroke-width:1.8172242;stroke-linecap:butt;stroke-linejoin:miter;stroke-miterlimit:4.0000000;stroke-dasharray:none;stroke-opacity:0.99456519"
       id="path1311"
       sodipodi:cx="385.71429"
       sodipodi:cy="289.50504"
       sodipodi:rx="31.428572"
       sodipodi:ry="31.428572"
       d="M 417.14287 289.50504 A 31.428572 31.428572 0 1 1  354.28572,289.50504 A 31.428572 31.428572 0 1 1  417.14287 289.50504 z"
       transform="matrix(0.867696,0.000000,0.000000,0.854897,-82.33546,64.64092)" />
  </g>
</svg>
