<?xml version="1.0" encoding="UTF-8" standalone="no"?>
<!-- Created with Inkscape (http://www.inkscape.org/) -->
<svg
   xmlns:dc="http://purl.org/dc/elements/1.1/"
   xmlns:cc="http://web.resource.org/cc/"
   xmlns:rdf="http://www.w3.org/1999/02/22-rdf-syntax-ns#"
   xmlns:svg="http://www.w3.org/2000/svg"
   xmlns="http://www.w3.org/2000/svg"
   xmlns:sodipodi="http://inkscape.sourceforge.net/DTD/sodipodi-0.dtd"
   xmlns:inkscape="http://www.inkscape.org/namespaces/inkscape"
   width="744.09448819"
   height="1052.3622047"
   id="svg2"
   sodipodi:version="0.32"
   inkscape:version="0.42"
   sodipodi:docbase="/home/daniel/giraffe/install"
   sodipodi:docname="grafit.svg">
  <defs
     id="defs4" />
  <sodipodi:namedview
     id="base"
     pagecolor="#ffffff"
     bordercolor="#666666"
     borderopacity="1.0"
     inkscape:pageopacity="0.0"
     inkscape:pageshadow="2"
     inkscape:zoom="0.35000000"
     inkscape:cx="375.00000"
     inkscape:cy="520.00000"
     inkscape:document-units="px"
     inkscape:current-layer="layer1"
     inkscape:window-width="1080"
     inkscape:window-height="727"
     inkscape:window-x="0"
     inkscape:window-y="0" />
  <metadata
     id="metadata7">
    <rdf:RDF>
      <cc:Work
         rdf:about="">
        <dc:format>image/svg+xml</dc:format>
        <dc:type
           rdf:resource="http://purl.org/dc/dcmitype/StillImage" />
      </cc:Work>
    </rdf:RDF>
  </metadata>
  <g
     inkscape:label="Layer 1"
     inkscape:groupmode="layer"
     id="layer1">
    <rect
       style="fill:#0000ff;fill-opacity:0.75000000;fill-rule:evenodd;stroke:#000000;stroke-width:1.0000000px;stroke-linecap:butt;stroke-linejoin:miter;stroke-opacity:1.0000000"
       id="rect1310"
       width="42.857143"
       height="54.285713"
       x="268.57144"
       y="298.07648" />
    <rect
       style="fill:#dd0000;fill-opacity:0.75000000;fill-rule:evenodd;stroke:#000000;stroke-width:1.0000000px;stroke-linecap:butt;stroke-linejoin:miter;stroke-opacity:1.0000000"
       id="rect1312"
       width="34.285713"
       height="57.142857"
       x="297.14285"
       y="223.79076" />
    <rect
       style="fill:#005f00;fill-opacity:0.75000000;fill-rule:evenodd;stroke:#000000;stroke-width:1.0000000px;stroke-linecap:butt;stroke-linejoin:miter;stroke-opacity:1.0000000"
       id="rect1314"
       width="40.000000"
       height="42.857143"
       x="228.57143"
       y="252.36217" />
    <path
       style="fill:#000000;fill-opacity:1.0000000;fill-rule:nonzero;stroke:none;stroke-width:1.0000000px;stroke-linecap:butt;stroke-linejoin:miter;stroke-opacity:1.0000000"
       id="path2783"
       d="M 233.38036,188.68903 C 231.21910,209.73766 226.07536,230.33326 223.22048,251.36006 C 218.98659,278.70671 210.65911,306.13214 197.18783,329.12542 C 180.66240,355.85690 154.56920,379.02704 127.00184,382.98351 C 109.65259,354.25060 150.37550,335.79185 173.70481,332.87684 C 190.00319,330.49353 204.18372,336.18327 219.33220,342.36552 C 234.12999,349.69178 249.13379,356.36787 264.38392,362.25547 C 281.27093,369.08309 298.82449,369.85275 316.48368,369.89366 C 388.09734,346.19349 245.71909,427.96444 349.90410,358.31549 C 292.19985,407.40276 310.71211,386.00135 322.95461,374.25567 L 361.93591,354.49221 C 347.76396,372.68747 351.65466,374.26960 316.74930,389.41693 C 399.29508,333.32446 311.98131,404.52112 282.31890,399.04958 C 264.38277,398.67986 246.60685,396.93985 229.50811,389.99441 C 214.32230,384.00915 199.36876,377.38830 184.63176,370.01011 C 169.71227,364.07957 155.58338,359.81442 139.68733,362.42537 C 110.02250,372.29974 171.64890,321.94889 161.71868,354.20918 C 172.39138,349.19314 118.38000,394.11725 158.71240,348.52185 C 173.02996,326.80105 180.99286,299.49831 186.00067,272.90715 C 188.50318,252.35690 193.15320,231.99444 195.19108,211.55944 L 233.38036,188.68903 z " />
  </g>
</svg>
